<mxfile host="app.diagrams.net" modified="2021-08-10T11:39:14.981Z" agent="5.0 (Windows NT 10.0; Win64; x64) AppleWebKit/537.36 (KHTML, like Gecko) Chrome/92.0.4515.131 Safari/537.36" etag="HLF-adjQNuBabfEz9M2P" version="14.9.5" type="github">
  <diagram id="xLdLrQBlYUD0zDoestS4" name="Page-1">
    <mxGraphModel dx="854" dy="468" grid="1" gridSize="10" guides="1" tooltips="1" connect="1" arrows="1" fold="1" page="1" pageScale="1" pageWidth="850" pageHeight="1100" math="0" shadow="0">
      <root>
        <mxCell id="0" />
        <mxCell id="1" parent="0" />
        <mxCell id="dIO78Hw2aqxbaHB3qtlQ-1" value="Booking" style="shape=ellipse;html=1;dashed=0;whitespace=wrap;aspect=fixed;perimeter=ellipsePerimeter;" vertex="1" parent="1">
          <mxGeometry x="365" y="40" width="70" height="70" as="geometry" />
        </mxCell>
        <mxCell id="dIO78Hw2aqxbaHB3qtlQ-3" value="Employee" style="html=1;dashed=0;whitespace=wrap;" vertex="1" parent="1">
          <mxGeometry x="130" y="110" width="100" height="50" as="geometry" />
        </mxCell>
        <mxCell id="dIO78Hw2aqxbaHB3qtlQ-4" value="Admin" style="html=1;dashed=0;whitespace=wrap;" vertex="1" parent="1">
          <mxGeometry x="540" y="50" width="100" height="50" as="geometry" />
        </mxCell>
        <mxCell id="dIO78Hw2aqxbaHB3qtlQ-5" value="Customer" style="html=1;dashed=0;whitespace=wrap;" vertex="1" parent="1">
          <mxGeometry x="120" y="240" width="100" height="50" as="geometry" />
        </mxCell>
        <mxCell id="dIO78Hw2aqxbaHB3qtlQ-6" value="Manager" style="html=1;dashed=0;whitespace=wrap;" vertex="1" parent="1">
          <mxGeometry x="570" y="230" width="100" height="50" as="geometry" />
        </mxCell>
        <mxCell id="dIO78Hw2aqxbaHB3qtlQ-7" value="Login" style="shape=ellipse;html=1;dashed=0;whitespace=wrap;aspect=fixed;perimeter=ellipsePerimeter;" vertex="1" parent="1">
          <mxGeometry x="365" y="150" width="70" height="70" as="geometry" />
        </mxCell>
        <mxCell id="dIO78Hw2aqxbaHB3qtlQ-8" value="Payment" style="shape=ellipse;html=1;dashed=0;whitespace=wrap;aspect=fixed;perimeter=ellipsePerimeter;" vertex="1" parent="1">
          <mxGeometry x="365" y="250" width="70" height="70" as="geometry" />
        </mxCell>
        <mxCell id="dIO78Hw2aqxbaHB3qtlQ-9" value="DB store" style="html=1;dashed=0;whitespace=wrap;shape=partialRectangle;right=0;" vertex="1" parent="1">
          <mxGeometry x="540" y="150" width="100" height="30" as="geometry" />
        </mxCell>
        <mxCell id="dIO78Hw2aqxbaHB3qtlQ-10" value="" style="endArrow=classic;html=1;exitX=0;exitY=0.5;exitDx=0;exitDy=0;entryX=1.043;entryY=0.357;entryDx=0;entryDy=0;entryPerimeter=0;exitPerimeter=0;" edge="1" parent="1" source="dIO78Hw2aqxbaHB3qtlQ-9" target="dIO78Hw2aqxbaHB3qtlQ-7">
          <mxGeometry width="50" height="50" relative="1" as="geometry">
            <mxPoint x="480" y="170" as="sourcePoint" />
            <mxPoint x="530" y="120" as="targetPoint" />
          </mxGeometry>
        </mxCell>
        <mxCell id="dIO78Hw2aqxbaHB3qtlQ-11" value="" style="endArrow=classic;html=1;exitX=0;exitY=0;exitDx=0;exitDy=0;entryX=0.929;entryY=0.714;entryDx=0;entryDy=0;entryPerimeter=0;" edge="1" parent="1" source="dIO78Hw2aqxbaHB3qtlQ-9" target="dIO78Hw2aqxbaHB3qtlQ-1">
          <mxGeometry width="50" height="50" relative="1" as="geometry">
            <mxPoint x="511.99" y="65.01" as="sourcePoint" />
            <mxPoint x="430" y="90" as="targetPoint" />
          </mxGeometry>
        </mxCell>
        <mxCell id="dIO78Hw2aqxbaHB3qtlQ-12" value="" style="endArrow=classic;html=1;exitX=0;exitY=1;exitDx=0;exitDy=0;exitPerimeter=0;" edge="1" parent="1" source="dIO78Hw2aqxbaHB3qtlQ-9">
          <mxGeometry width="50" height="50" relative="1" as="geometry">
            <mxPoint x="555" y="180" as="sourcePoint" />
            <mxPoint x="425" y="265" as="targetPoint" />
          </mxGeometry>
        </mxCell>
        <mxCell id="dIO78Hw2aqxbaHB3qtlQ-14" value="" style="endArrow=classic;html=1;exitX=0;exitY=0.5;exitDx=0;exitDy=0;entryX=1.043;entryY=0.357;entryDx=0;entryDy=0;entryPerimeter=0;" edge="1" parent="1" source="dIO78Hw2aqxbaHB3qtlQ-4">
          <mxGeometry width="50" height="50" relative="1" as="geometry">
            <mxPoint x="511.99" y="30.00999999999999" as="sourcePoint" />
            <mxPoint x="425" y="50" as="targetPoint" />
            <Array as="points">
              <mxPoint x="480" y="70" />
            </Array>
          </mxGeometry>
        </mxCell>
      </root>
    </mxGraphModel>
  </diagram>
</mxfile>
